<svg width="466" height="128" viewBox="0 0 466 128" fill="none" xmlns="http://www.w3.org/2000/svg">
<path fill-rule="evenodd" clip-rule="evenodd" d="M89.931 49.0636L59.8628 66.2461V100.452L89.931 117.634L119.999 100.452V66.2461L89.931 49.0636ZM128.999 61.0233L89.931 38.6978L50.8628 61.0233V105.674L89.931 128L128.999 105.674V61.0233Z" fill="#3DD279"/>
<path fill-rule="evenodd" clip-rule="evenodd" d="M89.931 10.3659L59.8628 27.5484V61.7539L89.931 78.9364L119.999 61.7539V27.5484L89.931 10.3659ZM128.999 22.3256L89.931 0L50.8628 22.3256V66.9767L89.931 89.3023L128.999 66.9767V22.3256Z" fill="#005CB1"/>
<path d="M59.8628 55.8804L50.8628 61.0234V66.9768L59.8628 72.1199V66.2462L63.7933 64.0001L59.8628 61.754V55.8804Z" fill="#1F9B80"/>
<path d="M116.069 64.0001L119.999 61.754V55.8804L128.999 61.0234V66.9768L119.999 72.1199V66.2462L116.069 64.0001Z" fill="#1F9B80"/>
<path fill-rule="evenodd" clip-rule="evenodd" d="M26 46.8687L26 81.0742L56.0682 98.2567L86.1365 81.0742V46.8687L56.0682 29.6862L26 46.8687ZM56.0682 19.3203L17 41.6459V86.297L56.0682 108.623L95.1365 86.297V41.6459L56.0682 19.3203Z" fill="#32CDFF"/>
<path d="M50.8628 95.2821V105.648L56.0682 108.623L65.1148 103.453L59.8628 100.452V96.0883L56.0682 98.2567L50.8628 95.2821Z" fill="#23C088"/>
<path d="M86.1365 51.232V46.8687L80.8845 43.8674L89.931 38.6978L95.1365 41.6724V52.0383L89.931 49.0636L86.1365 51.232Z" fill="#23C088"/>
<path d="M65.1648 24.5189L56.095 19.3359L50.8628 22.3259V32.6611L56.0682 29.6865L59.8628 31.8549V27.5487L65.1648 24.5189Z" fill="#1996F1"/>
<path d="M86.1365 76.7683L89.931 78.9367L95.1365 75.9621V86.2973L89.9043 89.2873L80.8345 84.1043L86.1365 81.0745V76.7683Z" fill="#1996F1"/>
<path d="M180.129 43.0581H190.66V54.6239H180.129V74.0245C180.129 79.0612 183.763 79.1544 190.66 78.7813V89.6942C174.165 91.5596 168.108 86.8027 168.108 74.0245V54.6239H160V43.0581H168.108V33.6376L180.129 30V43.0581Z" fill="#002942"/>
<path fill-rule="evenodd" clip-rule="evenodd" d="M242.504 66.3761C242.504 67.9618 242.317 69.5474 242.038 71.3196H206.905C208.489 77.1957 212.869 80.0872 220.045 80.0872C224.611 80.0872 228.153 78.5015 230.482 75.4235L240.174 81.0199C235.608 87.6422 228.805 91 219.859 91C212.124 91 205.973 88.6682 201.314 84.0046C196.654 79.341 194.325 73.4648 194.325 66.3761C194.325 59.3807 196.654 53.5046 201.221 48.841C205.787 44.0841 211.751 41.7523 218.927 41.7523C225.73 41.7523 231.414 44.0841 235.794 48.841C240.267 53.5979 242.504 59.3807 242.504 66.3761ZM218.927 52.5719C212.497 52.5719 208.117 56.0229 206.719 61.9924H230.482C229.084 55.6498 224.425 52.5719 218.927 52.5719Z" fill="#002942"/>
<path d="M259.234 56.3028C259.234 53.971 261.563 52.4786 264.639 52.4786C268.087 52.4786 270.603 54.0642 272.094 57.2355L282.345 51.6391C278.71 45.2966 272.187 41.7523 264.639 41.7523C259.606 41.7523 255.413 43.0581 251.965 45.763C248.61 48.3746 246.932 52.0122 246.932 56.5826C246.932 66.2829 255.599 69.1743 262.495 70.9465C267.248 72.159 270.976 73.5581 270.976 76.0765C270.976 78.7813 268.832 80.0872 264.545 80.0872C259.793 80.0872 256.811 78.0352 255.413 74.0245L244.976 79.9006C248.424 87.2691 254.947 91 264.545 91C269.857 91 274.33 89.6942 277.872 87.1758C281.506 84.5642 283.277 80.8333 283.277 76.0765C283.37 66.0963 274.517 62.8318 267.714 61.4327C262.961 60.2202 259.234 58.8211 259.234 56.3028Z" fill="#002942"/>
<path d="M304.833 43.0581H315.363V54.6239H304.833V74.0245C304.833 79.0612 308.467 79.1544 315.363 78.7813V89.6942C298.868 91.5596 292.811 86.8027 292.811 74.0245V54.6239H284.704V43.0581H292.811V33.6376L304.833 30V43.0581Z" fill="#002942"/>
<path d="M375.169 41.7523C369.019 41.7523 364.359 43.9908 361.284 48.4679C358.581 43.9908 354.295 41.7523 348.61 41.7523C342.739 41.7523 338.452 43.8043 335.657 48.0015V43.0581H323.635V89.6942H335.657V63.4847C335.657 56.6758 339.105 52.945 344.417 52.945C349.356 52.945 352.245 56.2095 352.245 61.8058V89.6942H364.266V63.4847C364.266 56.6758 367.435 52.945 372.933 52.945C377.872 52.945 380.761 56.2095 380.761 61.8058V89.6942H392.782V60.9664C392.782 49.3073 385.886 41.7523 375.169 41.7523Z" fill="#002942"/>
<path fill-rule="evenodd" clip-rule="evenodd" d="M448.935 66.3761C448.935 73.2783 446.512 79.1544 441.759 83.9113C437.007 88.6682 431.136 91 424.24 91C417.344 91 411.473 88.6682 406.72 83.9113C401.967 79.1544 399.638 73.2783 399.638 66.3761C399.638 59.474 401.967 53.6911 406.72 48.9343C411.473 44.1774 417.344 41.7523 424.24 41.7523C431.136 41.7523 437.007 44.1774 441.759 48.9343C446.512 53.6911 448.935 59.474 448.935 66.3761ZM411.659 66.3761C411.659 70.107 412.871 73.185 415.2 75.6101C417.623 78.0352 420.605 79.2477 424.24 79.2477C427.874 79.2477 430.856 78.0352 433.279 75.6101C435.702 73.185 436.914 70.107 436.914 66.3761C436.914 62.6453 435.702 59.5673 433.279 57.1422C430.856 54.7171 427.874 53.5046 424.24 53.5046C420.605 53.5046 417.623 54.7171 415.2 57.1422C412.871 59.5673 411.659 62.6453 411.659 66.3761Z" fill="#002942"/>
</svg>
